<svg width="14" height="14" viewBox="0 0 14 14" fill="none" xmlns="http://www.w3.org/2000/svg">
<g clip-path="url(#clip0_15_521)">
<path d="M13.6686 6.57568L12.1893 6.20599C12.0213 5.10038 11.5041 4.07746 10.7134 3.2867C9.92259 2.49594 8.89968 1.97877 7.79406 1.81076L7.42437 0.334193C7.40067 0.239594 7.34603 0.155628 7.26914 0.0956329C7.19225 0.0356373 7.09752 0.00305176 7 0.00305176C6.90247 0.00305176 6.80774 0.0356373 6.73086 0.0956329C6.65397 0.155628 6.59933 0.239594 6.57562 0.334193L6.20594 1.81349C5.10032 1.9815 4.07741 2.49867 3.28665 3.28943C2.49588 4.0802 1.97872 5.10311 1.8107 6.20872L0.33414 6.57841C0.239541 6.60212 0.155575 6.65676 0.0955795 6.73365C0.0355839 6.81053 0.00299835 6.90526 0.00299835 7.00279C0.00299835 7.10031 0.0355839 7.19504 0.0955795 7.27193C0.155575 7.34882 0.239541 7.40345 0.33414 7.42716L1.81344 7.79685C1.98145 8.90246 2.49862 9.92538 3.28938 10.7161C4.08014 11.5069 5.10306 12.0241 6.20867 12.1921L6.57836 13.6714C6.60207 13.766 6.6567 13.8499 6.73359 13.9099C6.81048 13.9699 6.90521 14.0025 7.00273 14.0025C7.10026 14.0025 7.19499 13.9699 7.27188 13.9099C7.34876 13.8499 7.4034 13.766 7.42711 13.6714L7.7968 12.1921C8.90241 12.0241 9.92532 11.5069 10.7161 10.7161C11.5068 9.92538 12.024 8.90246 12.192 7.79685L13.6713 7.42716C13.7659 7.40345 13.8499 7.34882 13.9099 7.27193C13.9699 7.19504 14.0025 7.10031 14.0025 7.00279C14.0025 6.90526 13.9699 6.81053 13.9099 6.73365C13.8499 6.65676 13.7659 6.60212 13.6713 6.57841L13.6686 6.57568ZM8.44648 7.82802L7.61852 7.00005L8.44648 6.17208L11.7578 7.00005L8.44648 7.82802ZM5.55351 7.82802L2.24219 7.00005L5.55461 6.17208L6.38148 7.00005L5.55351 7.82802ZM11.253 5.97193L8.67344 5.32662L8.02812 2.74701C8.81057 2.93533 9.52578 3.33614 10.0948 3.90521C10.6639 4.47427 11.0647 5.18949 11.253 5.97193ZM7.82797 5.55357L7 6.38154L6.17203 5.55357L7 2.24224L7.82797 5.55357ZM5.97187 2.74701L5.32656 5.32662L2.74695 5.97193C2.93528 5.18949 3.33608 4.47427 3.90515 3.90521C4.47422 3.33614 5.18943 2.93533 5.97187 2.74701ZM2.74531 8.02818L5.32656 8.67349L5.97187 11.2531C5.18943 11.0648 4.47422 10.664 3.90515 10.0949C3.33608 9.52583 2.93528 8.81062 2.74695 8.02818H2.74531ZM6.17039 8.44654L7 7.61857L7.82797 8.44654L7 11.7579L6.17039 8.44654ZM8.02648 11.2531L8.6718 8.67349L11.2514 8.02818C11.0632 8.81041 10.6627 9.52548 10.0939 10.0945C9.52513 10.6636 8.81026 11.0645 8.02812 11.2531H8.02648Z" fill="white"/>
</g>
<defs>
<clipPath id="clip0_15_521">
<rect width="14" height="14" fill="white"/>
</clipPath>
</defs>
</svg>
