<svg width="14" height="14" viewBox="0 0 14 14" fill="none" xmlns="http://www.w3.org/2000/svg">
<path d="M13.5625 11.375H13.125V7C13.125 6.76794 13.0328 6.54538 12.8687 6.38128C12.7046 6.21719 12.4821 6.125 12.25 6.125H9.1875V2.625C9.1875 2.39294 9.09531 2.17038 8.93122 2.00628C8.76712 1.84219 8.54456 1.75 8.3125 1.75H3.0625C2.83044 1.75 2.60788 1.84219 2.44378 2.00628C2.27969 2.17038 2.1875 2.39294 2.1875 2.625V11.375H1.75C1.63397 11.375 1.52269 11.4211 1.44064 11.5031C1.35859 11.5852 1.3125 11.6965 1.3125 11.8125C1.3125 11.9285 1.35859 12.0398 1.44064 12.1219C1.52269 12.2039 1.63397 12.25 1.75 12.25H13.5625C13.6785 12.25 13.7898 12.2039 13.8719 12.1219C13.9539 12.0398 14 11.9285 14 11.8125C14 11.6965 13.9539 11.5852 13.8719 11.5031C13.7898 11.4211 13.6785 11.375 13.5625 11.375ZM12.25 7V11.375H9.1875V7H12.25ZM3.0625 2.625H8.3125V11.375H7.4375V8.75C7.4375 8.63397 7.39141 8.52269 7.30936 8.44064C7.22731 8.35859 7.11603 8.3125 7 8.3125H4.375C4.25897 8.3125 4.14769 8.35859 4.06564 8.44064C3.98359 8.52269 3.9375 8.63397 3.9375 8.75V11.375H3.0625V2.625ZM6.5625 11.375H4.8125V9.1875H6.5625V11.375ZM3.9375 5.25C3.9375 5.13397 3.98359 5.02269 4.06564 4.94064C4.14769 4.85859 4.25897 4.8125 4.375 4.8125H5.25V3.9375C5.25 3.82147 5.29609 3.71019 5.37814 3.62814C5.46019 3.54609 5.57147 3.5 5.6875 3.5C5.80353 3.5 5.91481 3.54609 5.99686 3.62814C6.07891 3.71019 6.125 3.82147 6.125 3.9375V4.8125H7C7.11603 4.8125 7.22731 4.85859 7.30936 4.94064C7.39141 5.02269 7.4375 5.13397 7.4375 5.25C7.4375 5.36603 7.39141 5.47731 7.30936 5.55936C7.22731 5.64141 7.11603 5.6875 7 5.6875H6.125V6.5625C6.125 6.67853 6.07891 6.78981 5.99686 6.87186C5.91481 6.95391 5.80353 7 5.6875 7C5.57147 7 5.46019 6.95391 5.37814 6.87186C5.29609 6.78981 5.25 6.67853 5.25 6.5625V5.6875H4.375C4.25897 5.6875 4.14769 5.64141 4.06564 5.55936C3.98359 5.47731 3.9375 5.36603 3.9375 5.25Z" fill="#51A199"/>
</svg>
