<svg width="36" height="33" viewBox="0 0 36 33" fill="none" xmlns="http://www.w3.org/2000/svg">
<g clip-path="url(#clip0_21_847)">
<path d="M4.92566 24.9461C6.2458 25.8791 8.38618 25.8791 9.70636 24.9461C11.0264 24.0132 11.0264 22.5006 9.70636 21.5676C8.38618 20.6347 6.2458 20.6347 4.92566 21.5676C3.60551 22.5006 3.60551 24.0132 4.92566 24.9461Z" fill="#51A199"/>
<path d="M18.6277 12.2769C20.608 13.6763 23.8185 13.6763 25.7987 12.2769C27.7789 10.8775 27.7789 8.60862 25.7987 7.20922C23.8185 5.80982 20.608 5.80982 18.6277 7.20922C16.6475 8.60862 16.6475 10.8775 18.6277 12.2769Z" fill="#51A199"/>
<path d="M11.3541 18.6115C13.0043 19.7776 15.6797 19.7776 17.3299 18.6115C18.9801 17.4453 18.9801 15.5546 17.3299 14.3884C15.6797 13.2223 13.0043 13.2223 11.3541 14.3884C9.70391 15.5546 9.70391 17.4453 11.3541 18.6115Z" fill="#51A199"/>
<path d="M0.742581 17.7669C1.73269 18.4666 3.33797 18.4666 4.32808 17.7669C5.31819 17.0672 5.31819 15.9328 4.32808 15.233C3.33797 14.5333 1.73269 14.5333 0.742581 15.233C-0.247528 15.9328 -0.247527 17.0672 0.742581 17.7669Z" fill="#51A199"/>
<path d="M11.3541 5.0977C13.0043 6.26387 15.6797 6.26387 17.3299 5.0977C18.9801 3.93153 18.9801 2.0408 17.3299 0.874629C15.6797 -0.291543 13.0043 -0.291544 11.3541 0.874629C9.70391 2.0408 9.70391 3.93153 11.3541 5.0977Z" fill="#51A199"/>
<path d="M4.92565 11.4323C6.2458 12.3652 8.38618 12.3652 9.70636 11.4323C11.0264 10.4993 11.0264 8.98673 9.70636 8.05383C8.38618 7.12089 6.2458 7.12089 4.92565 8.05383C3.60551 8.98673 3.60552 10.4993 4.92565 11.4323Z" fill="#51A199"/>
<path d="M11.3541 32.1254C13.0043 33.2915 15.6797 33.2915 17.3299 32.1254C18.9801 30.9592 18.9801 29.0685 17.3299 27.9023C15.6797 26.7362 13.0043 26.7362 11.3541 27.9023C9.70391 29.0685 9.70391 30.9592 11.3541 32.1254Z" fill="#51A199"/>
<path d="M27.3438 19.0339C29.324 20.4333 32.5346 20.4333 34.5148 19.0339C36.4951 17.6345 36.4951 15.3656 34.5148 13.9662C32.5346 12.5668 29.324 12.5668 27.3438 13.9662C25.3636 15.3656 25.3636 17.6345 27.3438 19.0339Z" fill="#51A199"/>
<path d="M18.6277 25.7907C20.608 27.1901 23.8185 27.1901 25.7987 25.7907C27.7789 24.3913 27.7789 22.1225 25.7987 20.723C23.8185 19.3236 20.608 19.3236 18.6277 20.723C16.6475 22.1225 16.6475 24.3913 18.6277 25.7907Z" fill="#51A199"/>
</g>
<defs>
<clipPath id="clip0_21_847">
<rect width="36" height="33" fill="white"/>
</clipPath>
</defs>
</svg>
