<svg width="93" height="100" viewBox="0 0 93 100" fill="none" xmlns="http://www.w3.org/2000/svg">
<path d="M69.02 77.07C68.31 80.87 67.26 84.13 65.85 86.85C64.02 90.36 61.6 92.98 58.58 94.7C55.31 96.57 51.65 97.35 47.6 97.05C43.55 96.75 39.39 95.36 35.11 92.89C32.9 91.61 30.68 90.04 28.43 88.17C26.19 86.3 23.9 84.16 21.56 81.73C22.16 75.07 23.65 69.26 26.02 64.31C26.78 62.71 27.64 61.19 28.59 59.77C29.29 58.73 30.02 57.73 30.79 56.79C32.81 54.3 35.08 52.17 37.61 50.4C39.45 49.11 41.42 48.01 43.53 47.1C42.29 47.1 41.09 47.17 39.91 47.3C35.5 47.73 31.48 48.94 27.84 50.94C26.66 51.57 25.52 52.3 24.42 53.1C19.04 57.05 15.27 62.94 13.13 70.76C12.87 70.38 12.62 69.98 12.38 69.58L11.63 68.28C8.49 62.86 6.09 57.45 4.46 52.05C2.82 46.65 2 41.54 2 36.7C2 31.48 2.9 27.01 4.71 23.3C6.51 19.58 9.02 16.81 12.23 14.98L13.67 14.26C16.9 12.8 20.64 12.35 24.91 12.9C27.51 13.22 30.31 13.93 33.3 15C41.93 18.1 54.04 24.92 69.62 35.45C70.83 54.49 70.62 68.36 69.02 77.07Z" stroke="#51A199"/>
<path d="M89.0201 67.07C87.4101 75.77 83.9401 81.65 78.5801 84.7L76.8701 85.56L76.8201 85.58L58.5801 94.7C61.6001 92.98 64.0201 90.36 65.8501 86.85C67.2601 84.13 68.3101 80.87 69.0201 77.07C70.6201 68.36 70.8301 54.49 69.6201 35.45L89.6201 25.45C90.8301 44.49 90.6201 58.36 89.0201 67.07Z" stroke="#51A199"/>
<path d="M76.8701 85.56L78.5801 84.7C78.0201 85.02 77.4501 85.31 76.8701 85.56Z" stroke="#51A199"/>
<path d="M89.6199 25.4501L69.6199 35.4501C54.0399 24.9201 41.9299 18.1001 33.2999 15.0001C30.3099 13.9301 27.5099 13.2201 24.9099 12.9001C20.6399 12.3501 16.8999 12.8001 13.6699 14.2601L32.2299 4.98011C37.6499 1.89011 44.6699 1.90007 53.2999 5.00007C61.9299 8.10006 74.0399 14.9201 89.6199 25.4501Z" stroke="#51A199"/>
<path d="M43.5299 47.1C41.4199 48.01 39.4499 49.11 37.6099 50.4C35.0799 52.17 32.8099 54.3 30.7899 56.79C30.0199 57.73 29.2899 58.73 28.5899 59.77C27.6399 61.19 26.7799 62.71 26.0199 64.31L13.1299 70.76C15.2699 62.94 19.0399 57.05 24.4199 53.1C25.5199 52.3 26.6599 51.57 27.8399 50.94C31.4799 48.94 35.4999 47.73 39.9099 47.3C41.0899 47.17 42.2899 47.11 43.5299 47.1Z" stroke="#51A199"/>
</svg>
